<svg preserveAspectRatio="none" overflow="visible" style="display: block;" width="14" height="14" viewBox="0 0 14 14" fill="none" xmlns="http://www.w3.org/2000/svg">
<g id="Icon/Special/PersonSimpleSquat">
<g id="Vector">
<path fill-rule="evenodd" clip-rule="evenodd" d="M6.125 1.3125C6.60825 1.3125 7 1.70425 7 2.1875C7 2.67075 6.60825 3.0625 6.125 3.0625C5.64175 3.0625 5.25 2.67075 5.25 2.1875C5.25 1.70425 5.64175 1.3125 6.125 1.3125ZM7.875 2.1875C7.875 1.221 7.0915 0.4375 6.125 0.4375C5.15851 0.4375 4.375 1.221 4.375 2.1875C4.375 3.154 5.15851 3.9375 6.125 3.9375C7.0915 3.9375 7.875 3.154 7.875 2.1875Z" fill="#52545B"/>
<path fill-rule="evenodd" clip-rule="evenodd" d="M10.5 5.25C10.5 5.49162 10.3041 5.6875 10.0625 5.6875H5.25C5.00838 5.6875 4.8125 5.49162 4.8125 5.25C4.8125 5.00838 5.00838 4.8125 5.25 4.8125H10.0625C10.3041 4.8125 10.5 5.00838 10.5 5.25Z" fill="#52545B"/>
<path fill-rule="evenodd" clip-rule="evenodd" d="M5.34491 4.82292C5.10904 4.7705 4.87534 4.91922 4.82292 5.15509L3.94792 9.09259C3.91913 9.22214 3.9507 9.35774 4.03374 9.46126C4.11677 9.56477 4.2423 9.625 4.375 9.625H7.76711L7.01042 13.0301C6.95801 13.266 7.10673 13.4997 7.3426 13.5521C7.57847 13.6045 7.81217 13.4558 7.86459 13.2199L8.73959 9.28241C8.76837 9.15286 8.73681 9.01726 8.65377 8.91374C8.57074 8.81023 8.44521 8.75 8.3125 8.75H4.9204L5.67709 5.34491C5.7295 5.10904 5.58078 4.87533 5.34491 4.82292Z" fill="#52545B"/>
</g>
</g>
</svg>
