<svg preserveAspectRatio="none" overflow="visible" style="display: block;" width="16" height="16" viewBox="0 0 16 16" fill="none" xmlns="http://www.w3.org/2000/svg">
<g id="Icon/Special/ForkKnife">
<path id="Vector" d="M4.5 5.5V2.5C4.5 2.36739 4.55268 2.24021 4.64645 2.14645C4.74021 2.05268 4.86739 2 5 2C5.13261 2 5.25979 2.05268 5.35355 2.14645C5.44732 2.24021 5.5 2.36739 5.5 2.5V5.5C5.5 5.63261 5.44732 5.75979 5.35355 5.85355C5.25979 5.94732 5.13261 6 5 6C4.86739 6 4.74021 5.94732 4.64645 5.85355C4.55268 5.75979 4.5 5.63261 4.5 5.5ZM13.5 2.5V14C13.5 14.1326 13.4473 14.2598 13.3536 14.3536C13.2598 14.4473 13.1326 14.5 13 14.5C12.8674 14.5 12.7402 14.4473 12.6464 14.3536C12.5527 14.2598 12.5 14.1326 12.5 14V11H9.5C9.36739 11 9.24021 10.9473 9.14645 10.8536C9.05268 10.7598 9 10.6326 9 10.5C9.02322 9.3023 9.1745 8.11052 9.45125 6.945C10.0625 4.41438 11.2213 2.71813 12.8031 2.04063C12.8792 2.00806 12.9621 1.99486 13.0445 2.00221C13.1269 2.00957 13.2061 2.03725 13.2752 2.08277C13.3442 2.1283 13.4009 2.19024 13.4402 2.26306C13.4794 2.33587 13.5 2.41729 13.5 2.5ZM12.5 3.36875C10.4894 4.90438 10.0956 8.645 10.0188 10H12.5V3.36875ZM7.49312 2.41812C7.48333 2.35247 7.46056 2.28943 7.42615 2.23266C7.39174 2.1759 7.34636 2.12656 7.29268 2.08752C7.239 2.04848 7.17808 2.02051 7.11347 2.00526C7.04887 1.99001 6.98187 1.98778 6.9164 1.99869C6.85092 2.0096 6.78827 2.03344 6.73211 2.06882C6.67594 2.1042 6.62738 2.15041 6.58926 2.20475C6.55114 2.2591 6.52422 2.32049 6.51008 2.38534C6.49593 2.4502 6.49485 2.51722 6.50688 2.5825L7 5.53938C7 6.06981 6.78929 6.57852 6.41421 6.95359C6.03914 7.32866 5.53043 7.53938 5 7.53938C4.46957 7.53938 3.96086 7.32866 3.58579 6.95359C3.21071 6.57852 3 6.06981 3 5.53938L3.4925 2.5825C3.50453 2.51722 3.50344 2.4502 3.4893 2.38534C3.47515 2.32049 3.44823 2.2591 3.41011 2.20475C3.37199 2.15041 3.32343 2.1042 3.26727 2.06882C3.2111 2.03344 3.14846 2.0096 3.08298 1.99869C3.0175 1.98778 2.95051 1.99001 2.8859 2.00526C2.8213 2.02051 2.76038 2.04848 2.7067 2.08752C2.65301 2.12656 2.60764 2.1759 2.57322 2.23266C2.53881 2.28943 2.51604 2.35247 2.50625 2.41812L2.00625 5.41813C2.00197 5.44521 1.99988 5.47259 2 5.5C2.001 6.20863 2.25245 6.8941 2.70992 7.43529C3.16739 7.97647 3.80143 8.33854 4.5 8.4575V14C4.5 14.1326 4.55268 14.2598 4.64645 14.3536C4.74021 14.4473 4.86739 14.5 5 14.5C5.13261 14.5 5.25979 14.4473 5.35355 14.3536C5.44732 14.2598 5.5 14.1326 5.5 14V8.4575C6.19857 8.33854 6.83261 7.97647 7.29008 7.43529C7.74755 6.8941 7.999 6.20863 8 5.5C7.99991 5.47257 7.99761 5.44519 7.99312 5.41813L7.49312 2.41812Z" fill="#52545B"/>
</g>
</svg>
